<svg xmlns="http://www.w3.org/2000/svg" data-name="Layer 1" viewBox="0 0 32 32"><path fill="#8b8891" d="M5.5 2.5h0a2 2 0 0 1 2 2v27a0 0 0 0 1 0 0h-4a0 0 0 0 1 0 0V4.5A2 2 0 0 1 5.5 2.5zM26.5 2.5h0a2 2 0 0 1 2 2v27a0 0 0 0 1 0 0h-4a0 0 0 0 1 0 0V4.5A2 2 0 0 1 26.5 2.5z"/><rect width="31" height="8" x=".5" y="15.5" fill="#d8d9dc" rx="2" ry="2"/><polyline fill="none" points="4.48 15.5 3.5 17.46 .89 22.68"/><path fill="#ff5252" d="M4.48 15.5L3.5 17.46.89 22.68A1.944 1.944 0 0 1 .5 21.5v-4a2.006 2.006 0 0 1 2-2zM27.52 23.5l.98-1.96 2.61-5.22a1.944 1.944 0 0 1 .39 1.18v4a2.006 2.006 0 0 1-2 2z"/><polygon fill="#ff5252" points="10.52 15.5 7.5 21.53 6.52 23.5 10.98 23.5 14.98 15.5 10.52 15.5"/><polygon fill="#ff5252" points="25.5 15.5 24.5 17.49 21.5 23.5 17.02 23.5 21.02 15.5 25.5 15.5"/><rect width="31" height="5" x=".5" y="5.5" fill="#d8d9dc" rx="2" ry="2"/><polygon fill="#ff5252" points="9.48 5.5 7.5 9.46 6.98 10.5 2.51 10.5 3.5 8.51 5.01 5.5 9.48 5.5"/><polygon fill="#ff5252" points="13.02 10.5 15.52 5.5 19.98 5.5 17.48 10.5 13.02 10.5"/><path fill="#ff5252" d="M26.02,5.5,24.5,8.54l-.98,1.96H28l.5-1.01,1.91-3.77a1.973,1.973,0,0,0-.91-.22H26.02L24.5,8.54l-.98,1.96H28"/></svg>